<?xml version="1.0" encoding="UTF-8"?>
<svg id="objects" xmlns="http://www.w3.org/2000/svg" viewBox="0 0 70 70">
  <g>
    <path d="m51.73,21.65c.02.58-.61.95-1.11.66l-10.92-6.38c-.49-.28-.49-.99,0-1.27l3.02-1.77-2.37-4.1c-1.12-1.94-3.12-3.09-5.36-3.09s-4.24,1.16-5.36,3.09l-6.96,12.06-4.95-2.82,6.98-12.09c4.57-7.92,16.01-7.92,20.58,0l2.35,4.07,2.61-1.53c.48-.28,1.09.05,1.11.61l.37,12.55Z"/>
    <path d="m52.8,54.6h-5.31v3.09c0,.56-.6.91-1.09.65l-11.02-6.03c-.51-.28-.51-1,0-1.29l11.02-6.2c.49-.28,1.1.08,1.1.64v3.44h5.31c2.24,0,4.24-1.16,5.36-3.09,1.12-1.94,1.12-4.25,0-6.18l-7.09-12.28,4.95-2.82,7.07,12.25c4.57,7.92-1.14,17.82-10.29,17.82Z"/>
    <path d="m31.31,48.9v5.7h-14.11c-9.15,0-14.86-9.9-10.29-17.82l2.5-4.33-2.63-1.48c-.49-.27-.5-.97-.03-1.27l10.66-6.65c.49-.31,1.13.05,1.13.62v12.64c0,.56-.61.92-1.1.64l-3.06-1.72-2.53,4.39c-1.12,1.94-1.12,4.25,0,6.18,1.12,1.94,3.12,3.09,5.36,3.09h14.11Z"/>
  </g>
  <path d="m32.41,38.17h6.76v2.58h-12.19l6.3-7.63c.62-.76,1.14-1.42,1.56-1.98.42-.56.74-1.02.96-1.4.45-.74.67-1.4.67-1.99,0-.85-.3-1.56-.89-2.13-.6-.57-1.33-.86-2.21-.86-1.83,0-2.89,1.09-3.15,3.26h-2.73c.44-3.83,2.37-5.74,5.8-5.74,1.65,0,3.04.53,4.16,1.58,1.13,1.05,1.69,2.35,1.69,3.9,0,.99-.26,1.96-.79,2.9-.27.49-.66,1.08-1.17,1.76-.51.68-1.16,1.48-1.95,2.4l-2.82,3.34Z"/>
  <g>
    <path d="m22.47,63.88h3.42v-3.1h1.2v7.92h-1.2v-3.7h-3.42v3.7h-1.2v-7.92h1.2v3.1Z"/>
    <path d="m28.98,68.7v-7.92h1.66c.8,0,1.43.08,1.89.24.5.15.95.42,1.35.79.82.75,1.23,1.73,1.23,2.94s-.43,2.2-1.28,2.96c-.43.38-.88.64-1.34.79-.44.15-1.06.22-1.86.22h-1.64Zm1.2-1.12h.54c.54,0,.98-.06,1.34-.17.36-.12.68-.31.96-.57.59-.54.88-1.24.88-2.1s-.29-1.57-.87-2.11c-.52-.48-1.3-.72-2.31-.72h-.54v5.68Z"/>
    <path d="m37.81,65.48v3.22h-1.2v-7.92h1.36c.66,0,1.17.05,1.5.14.34.09.64.27.9.52.46.44.68,1.01.68,1.68,0,.73-.24,1.3-.73,1.72-.49.42-1.14.64-1.97.64h-.55Zm0-1.11h.45c1.1,0,1.65-.42,1.65-1.27s-.57-1.23-1.7-1.23h-.4v2.49Z"/>
    <path d="m46.66,61.9h-3.18v1.9h3.08v1.12h-3.08v2.65h3.18v1.12h-4.37v-7.92h4.37v1.12Z"/>
  </g>
</svg>