<?xml version="1.0" encoding="UTF-8"?>
<svg id="objects" xmlns="http://www.w3.org/2000/svg" viewBox="0 0 70 70">
  <g>
    <path d="m51.73,22c.02.58-.61.95-1.11.66l-10.92-6.38c-.49-.28-.49-.99,0-1.27l3.02-1.77-2.37-4.1c-1.12-1.94-3.12-3.09-5.36-3.09s-4.24,1.16-5.36,3.09l-6.96,12.06-4.95-2.82,6.98-12.09c4.57-7.92,16.01-7.92,20.58,0l2.35,4.07,2.61-1.53c.48-.28,1.09.05,1.11.61l.37,12.55Z"/>
    <path d="m52.8,54.95h-5.31v3.09c0,.56-.6.91-1.09.65l-11.02-6.03c-.51-.28-.51-1,0-1.29l11.02-6.2c.49-.28,1.1.08,1.1.64v3.44h5.31c2.24,0,4.24-1.16,5.36-3.09,1.12-1.94,1.12-4.25,0-6.18l-7.09-12.28,4.95-2.82,7.07,12.25c4.57,7.92-1.14,17.82-10.29,17.82Z"/>
    <path d="m31.31,49.25v5.7h-14.11c-9.15,0-14.86-9.9-10.29-17.82l2.5-4.33-2.63-1.48c-.49-.27-.5-.97-.03-1.27l10.66-6.65c.49-.31,1.13.05,1.13.62v12.64c0,.56-.61.92-1.1.64l-3.06-1.72-2.53,4.39c-1.12,1.94-1.12,4.25,0,6.18,1.12,1.94,3.12,3.09,5.36,3.09h14.11Z"/>
  </g>
  <path d="m32.61,32.67v-2.34c1.16,0,1.94-.13,2.34-.39.71-.45,1.07-1.18,1.07-2.19,0-.78-.26-1.41-.78-1.89-.51-.49-1.17-.74-1.99-.74-.76,0-1.35.18-1.76.55-.4.38-.7,1.01-.89,1.91h-2.73c.28-1.71.86-2.96,1.74-3.76.88-.8,2.1-1.19,3.68-1.19s2.89.47,3.89,1.41c1,.93,1.51,2.14,1.51,3.61,0,1.66-.66,2.96-1.98,3.88,1.51.89,2.26,2.32,2.26,4.32,0,1.63-.55,2.96-1.65,4-1.1,1.03-2.5,1.55-4.22,1.55-2.19,0-3.81-.8-4.87-2.41-.44-.67-.72-1.61-.83-2.8h2.65c.14.88.48,1.55,1.03,2.02.54.47,1.26.7,2.13.7s1.62-.29,2.2-.88c.58-.6.87-1.37.87-2.29,0-1.22-.44-2.09-1.31-2.61-.51-.3-1.3-.45-2.36-.45Z"/>
  <path d="m31.6,61.13l2.19,5.49,2.22-5.49h1.31l-3.56,8.52-3.47-8.52h1.31Z"/>
</svg>