<?xml version="1.0" encoding="UTF-8"?>
<svg id="objects" xmlns="http://www.w3.org/2000/svg" viewBox="0 0 70 70">
  <g>
    <path d="m51.73,22.23c.02.58-.61.95-1.11.66l-10.92-6.38c-.49-.28-.49-.99,0-1.27l3.02-1.77-2.37-4.1c-1.12-1.94-3.12-3.09-5.36-3.09s-4.24,1.16-5.36,3.09l-6.96,12.06-4.95-2.82,6.98-12.09c4.57-7.92,16.01-7.92,20.58,0l2.35,4.07,2.61-1.53c.48-.28,1.09.05,1.11.61l.37,12.55Z"/>
    <path d="m52.8,55.18h-5.31v3.09c0,.56-.6.91-1.09.65l-11.02-6.03c-.51-.28-.51-1,0-1.29l11.02-6.2c.49-.28,1.1.08,1.1.64v3.44h5.31c2.24,0,4.24-1.16,5.36-3.09,1.12-1.94,1.12-4.25,0-6.18l-7.09-12.28,4.95-2.82,7.07,12.25c4.57,7.92-1.14,17.82-10.29,17.82Z"/>
    <path d="m31.31,49.48v5.7h-14.11c-9.15,0-14.86-9.9-10.29-17.82l2.5-4.33-2.63-1.48c-.49-.27-.5-.97-.03-1.27l10.66-6.65c.49-.31,1.13.05,1.13.62v12.64c0,.56-.61.92-1.1.64l-3.06-1.72-2.53,4.39c-1.12,1.94-1.12,4.25,0,6.18,1.12,1.94,3.12,3.09,5.36,3.09h14.11Z"/>
  </g>
  <path d="m35.83,22.54l2.01,1.51-4.34,5.9c.24-.03.44-.05.6-.07.16-.02.29-.02.39-.02,1.47,0,2.75.56,3.82,1.69,1.07,1.11,1.6,2.45,1.6,4.02,0,1.66-.6,3.09-1.79,4.28-1.18,1.18-2.61,1.78-4.27,1.78s-3.09-.58-4.33-1.75c-1.22-1.17-1.82-2.55-1.82-4.15,0-1.43.59-2.96,1.78-4.56l6.35-8.62Zm1.41,13.21c0-.96-.33-1.78-1-2.45-.67-.67-1.49-1.01-2.43-1.01s-1.77.33-2.43,1-1,1.47-1,2.42.33,1.76,1,2.42c.67.67,1.48,1,2.45,1s1.74-.33,2.41-1c.67-.67,1.01-1.47,1.01-2.39Z"/>
  <g>
    <path d="m30.05,66.06v3.22h-1.2v-7.92h1.36c.66,0,1.17.05,1.5.14.34.09.64.27.9.52.46.44.68,1.01.68,1.68,0,.73-.24,1.3-.73,1.72-.49.42-1.14.64-1.97.64h-.55Zm0-1.11h.45c1.1,0,1.65-.42,1.65-1.27s-.57-1.23-1.7-1.23h-.4v2.49Z"/>
    <path d="m39.01,62.53l-.97.57c-.18-.31-.35-.52-.52-.62-.17-.11-.39-.16-.66-.16-.33,0-.61.09-.83.28-.22.18-.33.42-.33.7,0,.39.29.7.86.93l.79.32c.64.26,1.11.58,1.41.95s.45.83.45,1.38c0,.73-.24,1.33-.73,1.81-.49.48-1.1.72-1.82.72-.69,0-1.26-.2-1.7-.61-.44-.41-.72-.98-.83-1.72l1.21-.27c.05.47.15.79.29.96.25.34.61.51,1.08.51.37,0,.68-.12.93-.37.25-.25.37-.57.37-.95,0-.15-.02-.3-.06-.42-.04-.13-.11-.25-.2-.35-.09-.11-.21-.21-.35-.3-.14-.09-.31-.18-.51-.27l-.76-.32c-1.08-.46-1.63-1.13-1.63-2.01,0-.6.23-1.09.68-1.49.46-.4,1.02-.61,1.7-.61.91,0,1.63.44,2.14,1.33Z"/>
  </g>
</svg>