<?xml version="1.0" encoding="UTF-8"?>
<svg id="objects" xmlns="http://www.w3.org/2000/svg" viewBox="0 0 70 70">
  <g>
    <path d="m51.73,22.23c.02.58-.61.95-1.11.66l-10.92-6.38c-.49-.28-.49-.99,0-1.27l3.02-1.77-2.37-4.1c-1.12-1.94-3.12-3.09-5.36-3.09s-4.24,1.16-5.36,3.09l-6.96,12.06-4.95-2.82,6.98-12.09c4.57-7.92,16.01-7.92,20.58,0l2.35,4.07,2.61-1.53c.48-.28,1.09.05,1.11.61l.37,12.55Z"/>
    <path d="m52.8,55.18h-5.31v3.09c0,.56-.6.91-1.09.65l-11.02-6.03c-.51-.28-.51-1,0-1.29l11.02-6.2c.49-.28,1.1.08,1.1.64v3.44h5.31c2.24,0,4.24-1.16,5.36-3.09,1.12-1.94,1.12-4.25,0-6.18l-7.09-12.28,4.95-2.82,7.07,12.25c4.57,7.92-1.14,17.82-10.29,17.82Z"/>
    <path d="m31.31,49.48v5.7h-14.11c-9.15,0-14.86-9.9-10.29-17.82l2.5-4.33-2.63-1.48c-.49-.27-.5-.97-.03-1.27l10.66-6.65c.49-.31,1.13.05,1.13.62v12.64c0,.56-.61.92-1.1.64l-3.06-1.72-2.53,4.39c-1.12,1.94-1.12,4.25,0,6.18,1.12,1.94,3.12,3.09,5.36,3.09h14.11Z"/>
  </g>
  <path d="m36.58,25.73h-8.96v-2.56h13.54l-11.45,18.78-2.18-1.38,9.05-14.84Z"/>
  <g>
    <path d="m17.28,65.28c0-1.12.41-2.07,1.23-2.87.81-.8,1.79-1.2,2.94-1.2s2.1.4,2.91,1.21c.81.81,1.22,1.78,1.22,2.91s-.41,2.11-1.22,2.9c-.82.8-1.81,1.2-2.96,1.2-1.02,0-1.94-.35-2.76-1.06-.9-.78-1.34-1.81-1.34-3.08Zm1.21.02c0,.88.29,1.6.88,2.16.59.56,1.26.85,2.03.85.83,0,1.53-.29,2.1-.86.57-.58.86-1.29.86-2.12s-.28-1.55-.85-2.12c-.56-.57-1.26-.86-2.08-.86s-1.52.29-2.09.86c-.57.57-.85,1.27-.85,2.1Z"/>
    <path d="m28.97,62.48v6.8h-1.2v-6.8h-1.82v-1.12h4.84v1.12h-1.82Z"/>
    <path d="m33.05,64.45h3.42v-3.1h1.2v7.92h-1.2v-3.7h-3.42v3.7h-1.2v-7.92h1.2v3.1Z"/>
    <path d="m43.94,62.48h-3.18v1.9h3.08v1.12h-3.08v2.65h3.18v1.12h-4.37v-7.92h4.37v1.12Z"/>
    <path d="m48.19,65.9l2.45,3.38h-1.46l-2.26-3.24h-.22v3.24h-1.2v-7.92h1.4c1.05,0,1.8.2,2.27.59.51.44.77,1.02.77,1.73,0,.56-.16,1.04-.48,1.45-.32.4-.75.66-1.27.78Zm-1.49-.91h.38c1.13,0,1.7-.43,1.7-1.3,0-.81-.55-1.22-1.65-1.22h-.43v2.52Z"/>
  </g>
</svg>