<?xml version="1.0" encoding="UTF-8"?>
<svg id="objects" xmlns="http://www.w3.org/2000/svg" viewBox="0 0 70 70">
  <g>
    <path d="m51.73,22.3c.02.58-.61.95-1.11.66l-10.92-6.38c-.49-.28-.49-.99,0-1.27l3.02-1.77-2.37-4.1c-1.12-1.94-3.12-3.09-5.36-3.09s-4.24,1.16-5.36,3.09l-6.96,12.06-4.95-2.82,6.98-12.09c4.57-7.92,16.01-7.92,20.58,0l2.35,4.07,2.61-1.53c.48-.28,1.09.05,1.11.61l.37,12.55Z"/>
    <path d="m52.8,55.25h-5.31v3.09c0,.56-.6.91-1.09.65l-11.02-6.03c-.51-.28-.51-1,0-1.29l11.02-6.2c.49-.28,1.1.08,1.1.64v3.44h5.31c2.24,0,4.24-1.16,5.36-3.09,1.12-1.94,1.12-4.25,0-6.18l-7.09-12.28,4.95-2.82,7.07,12.25c4.57,7.92-1.14,17.82-10.29,17.82Z"/>
    <path d="m31.31,49.55v5.7h-14.11c-9.15,0-14.86-9.9-10.29-17.82l2.5-4.33-2.63-1.48c-.49-.27-.5-.97-.03-1.27l10.66-6.65c.49-.31,1.13.05,1.13.62v12.64c0,.56-.61.92-1.1.64l-3.06-1.72-2.53,4.39c-1.12,1.94-1.12,4.25,0,6.18,1.12,1.94,3.12,3.09,5.36,3.09h14.11Z"/>
  </g>
  <path d="m32.9,25.81h-3.14l1.51-2.56h4.37v18.16h-2.74v-15.59Z"/>
  <g>
    <path d="m27.6,66.13v3.22h-1.2v-7.92h1.36c.66,0,1.17.05,1.5.14.34.09.64.27.9.52.46.44.68,1.01.68,1.68,0,.73-.24,1.3-.73,1.72-.49.42-1.14.64-1.97.64h-.55Zm0-1.11h.45c1.1,0,1.65-.42,1.65-1.27s-.57-1.23-1.7-1.23h-.4v2.49Z"/>
    <path d="m36.46,62.55h-3.18v1.9h3.08v1.12h-3.08v2.65h3.18v1.12h-4.37v-7.92h4.37v1.12Z"/>
    <path d="m40.22,62.55v6.8h-1.2v-6.8h-1.82v-1.12h4.84v1.12h-1.82Z"/>
  </g>
</svg>