<?xml version="1.0" encoding="UTF-8"?>
<svg id="Layer_2" data-name="Layer 2" xmlns="http://www.w3.org/2000/svg" viewBox="0 0 115.7 100">
  <defs>
    <style>
      .cls-1 {
        fill: #32cd32;
      }
    </style>
  </defs>
  <g id="Layer_1-2" data-name="Layer 1">
    <g>
      <path class="cls-1" d="m50.3,54.17h.58c7.02,0,13.66-2.67,18.73-7.53,5.21-5.01,8.17-11.75,8.34-18.98.16-7.22-2.52-14.1-7.53-19.31C65.4,3.13,58.67.17,51.44,0c-7.24-.15-14.1,2.52-19.31,7.53-5.22,5.01-8.17,11.75-8.34,18.99-.16,7.24,2.52,14.1,7.53,19.31,5,5.21,11.75,8.17,18.98,8.32h0ZM34.15,9.65c4.53-4.35,10.45-6.73,16.7-6.73h.52c6.45.13,12.47,2.77,16.93,7.43,4.45,4.66,6.86,10.77,6.71,17.24-.13,6.45-2.77,12.47-7.43,16.93-4.66,4.47-10.78,6.87-17.24,6.71-6.45-.13-12.47-2.77-16.93-7.43-4.45-4.66-6.86-10.77-6.71-17.24.15-6.42,2.79-12.44,7.45-16.91h0Z"/>
      <path class="cls-1" d="m49.49,40.72v1.77c0,.25.21.45.45.45h2.04c.25,0,.45-.21.45-.45v-1.73c4.18-.42,6.91-3.09,7.01-7.07.1-3.78-2.45-6.49-7.01-7.59v-9.58c1.02.21,1.86.65,2.48,1.33,1.01,1.12,1.33,2.7,1.32,3.88,0,.25.16.45.41.47l2.01.21c.26.03.5-.16.5-.42.07-1.85-.42-4.29-2.07-6.1-1.16-1.29-2.77-2.05-4.65-2.31v-1.85c0-.25-.21-.45-.45-.45h-2.04c-.25,0-.45.2-.45.45v1.81c-2.46.32-4.01,1.36-4.91,2.28-1.36,1.39-2.12,3.34-2.07,5.35.07,2.98,2.28,6.26,6.98,7.3v9.27c-1.86-.39-4.06-1.61-4.24-5.15-.02-.23-.21-.44-.44-.44h-2.04c-.25,0-.47.22-.45.47.17,4.44,2.9,7.46,7.16,8.11h0Zm7.01-7.11c-.07,3.05-2.23,3.98-4.08,4.22v-8.72c2.19.65,4.13,1.95,4.08,4.5Zm-11.05-12.53c-.02-.57.07-2.05,1.25-3.24.69-.7,1.64-1.16,2.82-1.36v8.98c-2.75-.82-4.04-2.69-4.06-4.38h0Z"/>
      <path class="cls-1" d="m50.43,48.32h.45c5.5,0,10.7-2.08,14.68-5.91,4.09-3.93,6.42-9.2,6.54-14.87.25-11.71-9.07-21.43-20.78-21.67-11.78-.25-21.43,9.07-21.67,20.78-.25,11.71,9.07,21.43,20.78,21.67h0Zm.44-39.52h.39c10.08.21,18.13,8.59,17.91,18.68-.1,4.88-2.1,9.44-5.63,12.82-3.53,3.38-8.15,5.19-13.06,5.08-10.1-.22-18.12-8.59-17.92-18.68.22-9.95,8.39-17.91,18.31-17.91h0Z"/>
      <path class="cls-1" d="m114.95,63.93c-3.14-.15-13-.7-15.65-1.14-.7-.11-1.96-.58-3.41-1.14-4.57-1.73-10.86-4.34-18.35-3.24-7.52,1.1-13.77,5.2-17.91,7.93-1.31.86-2.43,1.6-3.15,1.93-1.79.84-4.45,1.04-7.28,1.28-4.5.35-9.58.76-12.72,3.96-1.31,1.33-1.92,2.75-2.2,3.84-1.26-.22-1.76-.56-3.9-.92-.19-.05-.41-.07-.68-.11-4.5-.79-9.03-1.67-10.04-1.89-.22-.05-.47-.11-.76-.18-.88-.22-2.7-.72-2.7-.72-.28-.06-.68-.18-1.14-.31-2.58-.76-7.05-2.17-11.12-.29C1.57,74.01.01,76.08,0,78.19c-.02,1.61.86,2.96,2.4,3.69,3.12,1.48,6.15,2.95,9.67,3.69,3.88,1.95,8.5,4.69,11.69,5.84,1.91.7,4.89,1.81,10.15,2.99,4.94,1.12,11.08,2.49,12.19,3.05,3.4,1.7,6.89,2.55,10.42,2.55,1.26,0,2.52-.1,3.8-.32,3.01-.52,9.45-2.9,16.28-5.44,7.21-2.68,14.76-5.71,17.17-5.8,3.49-.11,8.16.69,14.1,1.41,1.68.21,5.26.6,6.93.79.48.06.88-.32.88-.81v-25.1c.02-.42-.3-.77-.74-.8h0Zm-93.9,13.7c-2.55,1.65-4.16,3.93-4.31,6.11-.03.47.03.91.13,1.32-1.75-.85-2.58-1.72-4.01-2.43-1.38-.69-2.54-1.28-3.27-1.63-.66-.32-.73-.73-.73-1.02,0-.78.72-1.92,2.24-2.62,1.48-.68,2.87-.91,4.12-.91,1.51,0,2.56.34,3.59.58.31.1,1.29.44,2.24.6h0Zm-18.11.54c0-.78.72-1.92,2.24-2.62,1.39-.65,2.67-.73,4.21-.58-2.11,1.14-3.47,3.06-3.49,5.01,0,.15.02.28.03.41-.91-.39-1.44-.79-2.27-1.18-.65-.33-.73-.74-.72-1.04h0Zm109.85,9.29c-1.41-.16-2.95-.35-4.53-.54-6.05-.73-10.84-1.57-14.55-1.44-2.89.1-9.95,2.96-18.1,5.98-6.41,2.38-13.03,4.84-15.75,5.31-4.19.72-8.37.06-12.41-1.96-1.33-.68-5.75-1.68-12.87-3.28-3.22-.72-5.03-1.47-7.4-2.07,1.76.22,2.3.45,4.6.72l2.35.26c2.15.25,6.15.62,10.08,1,3.45.32,7.24.69,9.23.91.75.09,1.45-.42,1.6-1.17.18-.85-.41-1.64-1.26-1.75-1.8-.21-4.97-.5-9.29-.91-3.92-.37-7.88-.75-10.02-.98l-2.35-.26c-5.13-.57-10.92-1.44-12.06-2.28-.29-.25-.42-.58-.39-1.04.06-.94.89-2.52,3.03-3.88,3.03-1.93,7.54-.69,7.59-.68l.02-.03c3.25.56,4.48,1.02,4.76,1.07,3.24.34,10.54,1.07,13.53,1.07.22,0,.42,0,.6-.02,3.38-.16,16.85-4.82,21.8-8.24,2.2-1.51,5.23-2.51,7.91-3.17,1.31-.32,3.06-.65,4.28-.85.79-.13,1.32-.89,1.18-1.68-.13-.81-.89-1.35-1.68-1.2-1.2.21-2.93.52-4.19.82-3.01.72-6.52,1.85-9.18,3.68-.95.66-2.31,1.38-3.87,2.12.02-.45.06-.89.09-1.29.07-.78-.5-1.47-1.26-1.57-.82-.11-1.58.48-1.65,1.32-.06.66-.11,1.88-.13,2.86-3.27,1.36-6.87,2.64-9.61,3.45-.07-.39-.15-.78-.22-1.12-.19-.84-1.04-1.35-1.86-1.1-.73.22-1.17.95-1.01,1.7.09.37.16.79.23,1.23-.38.07-.73.13-.98.13-2.05.1-8.08-.47-11.81-.85.22-.62.6-1.39,1.35-2.14,2.36-2.4,6.68-2.75,10.86-3.09,3.09-.25,6.02-.48,8.29-1.54.92-.42,2.07-1.18,3.53-2.15,3.92-2.58,9.83-6.48,16.72-7.48,6.75-.98,12.6,1.47,16.9,3.09,1.67.63,2.98,1.13,3.97,1.29,2.65.44,10.29.92,13.97,1.08v20.67s-.04,0-.04,0Z"/>
    </g>
  </g>
</svg>