<?xml version="1.0" encoding="utf-8"?>
<!-- Generator: Adobe Illustrator 27.3.1, SVG Export Plug-In . SVG Version: 6.00 Build 0)  -->
<svg version="1.1" id="Layer_1" xmlns="http://www.w3.org/2000/svg" xmlns:xlink="http://www.w3.org/1999/xlink" x="0px" y="0px"
	 viewBox="0 0 250 37.6" style="enable-background:new 0 0 250 37.6;" xml:space="preserve">
<style type="text/css">
	.st0{fill:#FFFFFF;}
</style>
<g>
	<g>
		<path class="st0" d="M45,1.2h15.5c2.6,0,4.9,0.5,6.9,1.5c2,1,3.5,2.4,4.6,4.2c1.1,1.8,1.6,3.8,1.6,6c0,2.2-0.5,4.2-1.6,6
			c-1.1,1.8-2.6,3.1-4.6,4.1c-2,1-4.3,1.5-6.9,1.5h-7v11.8H45V1.2z M62.7,16.5c0.6-0.4,1.1-0.8,1.5-1.5c0.4-0.6,0.5-1.3,0.5-2.1
			c0-0.8-0.2-1.5-0.5-2.2c-0.4-0.6-0.8-1.1-1.5-1.5s-1.4-0.5-2.2-0.5h-7V17h7C61.3,17,62.1,16.8,62.7,16.5z M54.3,20.8h10.1
			l10.1,15.5H64.4L54.3,20.8z"/>
		<path class="st0" d="M77.5,1.2h24v7.5H86V15h15v7.5H86v6.3h15.5v7.5h-24V1.2z"/>
		<path class="st0" d="M106.2,9.6c1.6-2.8,3.9-4.9,6.7-6.5c2.8-1.6,6-2.4,9.4-2.4c2.6,0,5.1,0.5,7.3,1.4c2.2,1,4.1,2.2,5.7,3.7
			c1.6,1.5,2.7,3.2,3.6,5l-7.9,3c-0.8-1.6-1.9-2.9-3.4-3.9c-1.5-1-3.2-1.5-5.2-1.5c-1.8,0-3.4,0.5-4.9,1.4c-1.5,0.9-2.7,2.1-3.5,3.7
			c-0.9,1.6-1.3,3.3-1.3,5.2c0,1.9,0.4,3.6,1.3,5.2s2,2.8,3.5,3.7c1.5,0.9,3.1,1.4,4.9,1.4c1.9,0,3.7-0.5,5.2-1.5
			c1.5-1,2.7-2.3,3.4-3.9l7.9,3c-0.8,1.8-2,3.5-3.6,5c-1.6,1.5-3.4,2.8-5.7,3.7c-2.2,1-4.7,1.4-7.3,1.4c-3.4,0-6.6-0.8-9.4-2.4
			c-2.8-1.6-5.1-3.8-6.7-6.5c-1.6-2.8-2.5-5.8-2.5-9.1C103.8,15.4,104.6,12.4,106.2,9.6z"/>
		<path class="st0" d="M142.6,9.6c1.6-2.8,3.9-4.9,6.7-6.5c2.8-1.6,6-2.4,9.4-2.4c2.6,0,5.1,0.5,7.3,1.4c2.2,1,4.1,2.2,5.7,3.7
			c1.6,1.5,2.7,3.2,3.6,5l-7.9,3c-0.8-1.6-1.9-2.9-3.4-3.9c-1.5-1-3.2-1.5-5.2-1.5c-1.8,0-3.4,0.5-4.9,1.4c-1.5,0.9-2.7,2.1-3.5,3.7
			c-0.9,1.6-1.3,3.3-1.3,5.2c0,1.9,0.4,3.6,1.3,5.2s2,2.8,3.5,3.7c1.5,0.9,3.1,1.4,4.9,1.4c1.9,0,3.7-0.5,5.2-1.5
			c1.5-1,2.7-2.3,3.4-3.9l7.9,3c-0.8,1.8-2,3.5-3.6,5c-1.6,1.5-3.4,2.8-5.7,3.7c-2.2,1-4.7,1.4-7.3,1.4c-3.4,0-6.6-0.8-9.4-2.4
			c-2.8-1.6-5.1-3.8-6.7-6.5c-1.6-2.8-2.5-5.8-2.5-9.1C140.1,15.4,141,12.4,142.6,9.6z"/>
		<path class="st0" d="M179,9.6c1.6-2.8,3.9-4.9,6.7-6.5c2.8-1.6,6-2.4,9.4-2.4c3.4,0,6.6,0.8,9.4,2.4c2.8,1.6,5.1,3.8,6.7,6.5
			c1.6,2.8,2.5,5.8,2.5,9.1c0,3.3-0.8,6.4-2.5,9.1c-1.6,2.8-3.9,4.9-6.7,6.5c-2.8,1.6-6,2.4-9.4,2.4c-3.4,0-6.6-0.8-9.4-2.4
			c-2.8-1.6-5.1-3.8-6.7-6.5c-1.6-2.8-2.5-5.8-2.5-9.1C176.5,15.4,177.3,12.4,179,9.6z M186.6,24c0.9,1.6,2,2.8,3.5,3.7
			c1.5,0.9,3.1,1.4,4.9,1.4c1.8,0,3.4-0.5,4.9-1.4c1.5-0.9,2.7-2.1,3.5-3.7c0.9-1.6,1.3-3.3,1.3-5.2c0-1.9-0.4-3.6-1.3-5.2
			c-0.9-1.6-2-2.8-3.5-3.7c-1.5-0.9-3.1-1.4-4.9-1.4c-1.8,0-3.4,0.5-4.9,1.4c-1.5,0.9-2.7,2.1-3.5,3.7c-0.9,1.6-1.3,3.3-1.3,5.2
			C185.3,20.7,185.7,22.4,186.6,24z"/>
		<path class="st0" d="M217.1,1.2h8.3l23.3,31.6l-8,2.5V1.2h8.5v35.1h-8.3L217.6,4.7l8-2.5v34.1h-8.5V1.2z"/>
		<g>
			<path class="st0" d="M3.5,9.6c1.6-2.8,3.9-4.9,6.7-6.5c2.8-1.6,6-2.4,9.4-2.4c2.6,0,5.1,0.5,7.3,1.4c2.2,1,4.1,2.2,5.7,3.7
				c1.6,1.5,2.7,3.2,3.6,5l-7.9,3c-0.8-1.6-1.9-2.9-3.4-3.9c-1.5-1-3.3-1.5-5.2-1.5c-1.8,0-3.5,0.5-4.9,1.4
				c-1.5,0.9-2.7,2.1-3.5,3.7c-0.9,1.6-1.3,3.3-1.3,5.2c0,1.9,0.4,3.6,1.3,5.2c0.9,1.6,2,2.8,3.5,3.7c1.5,0.9,3.1,1.4,4.9,1.4
				c1.8,0,3.3-0.4,4.7-1.1s2.4-1.6,3.1-2.7c0.7-1.1,1.1-2.1,1-3.2l1.3,1.8h-8.2v-7.5h16.2c0.4,4-0.2,7.6-1.8,10.8
				c-1.6,3.1-3.9,5.5-6.8,7.2c-2.9,1.7-6.1,2.6-9.5,2.6c-3.4,0-6.6-0.8-9.4-2.4c-2.8-1.6-5.1-3.8-6.7-6.5C1.8,25.2,1,22.1,1,18.8
				C1,15.4,1.8,12.4,3.5,9.6z"/>
			<rect x="34" y="16.3" class="st0" width="7.5" height="20"/>
			<rect x="21.5" y="16.3" class="st0" width="20" height="7.5"/>
			<rect x="30.2" y="23.8" class="st0" width="3.8" height="6.3"/>
		</g>
	</g>
</g>
</svg>
