<?xml version="1.0" encoding="UTF-8"?>
<svg id="Layer_1" data-name="Layer 1" xmlns="http://www.w3.org/2000/svg" viewBox="0 0 248.21 36.1">
  <defs>
    <style>
      .cls-1 {
        fill: #32cd32;
      }
    </style>
  </defs>
  <path class="cls-1" d="m43.98.5h15.53c2.61,0,4.89.5,6.86,1.5,1.97,1,3.49,2.4,4.56,4.18,1.07,1.79,1.6,3.78,1.6,5.99s-.53,4.24-1.6,6.01c-1.07,1.77-2.59,3.15-4.56,4.13-1.97.99-4.26,1.48-6.86,1.48h-7.01v11.77h-8.52V.5Zm17.74,15.26c.63-.35,1.13-.84,1.48-1.48s.53-1.34.53-2.1-.18-1.52-.53-2.15c-.35-.63-.84-1.13-1.48-1.48s-1.37-.53-2.2-.53h-7.01v8.27h7.01c.83,0,1.57-.18,2.2-.53Zm-8.37,4.28h10.12l10.07,15.53h-10.12l-10.07-15.53Z"/>
  <path class="cls-1" d="m76.48.5h24.05v7.52h-15.53v6.26h15.03v7.52h-15.03v6.26h15.53v7.52h-24.05V.5Z"/>
  <path class="cls-1" d="m105.22,8.89c1.64-2.76,3.87-4.93,6.69-6.51,2.82-1.59,5.95-2.38,9.39-2.38,2.64,0,5.07.48,7.29,1.43,2.22.95,4.11,2.2,5.66,3.73,1.55,1.54,2.75,3.21,3.58,5.01l-7.92,3.01c-.77-1.57-1.91-2.86-3.43-3.86-1.52-1-3.25-1.5-5.19-1.5-1.8,0-3.45.45-4.93,1.35-1.49.9-2.66,2.13-3.51,3.68-.85,1.55-1.28,3.28-1.28,5.19s.43,3.63,1.28,5.19,2.02,2.78,3.51,3.68c1.49.9,3.13,1.35,4.93,1.35,1.94,0,3.67-.5,5.19-1.5,1.52-1,2.66-2.29,3.43-3.86l7.92,3.01c-.84,1.8-2.03,3.47-3.58,5.01-1.55,1.54-3.44,2.78-5.66,3.73-2.22.95-4.65,1.43-7.29,1.43-3.44,0-6.57-.79-9.39-2.38-2.82-1.59-5.05-3.76-6.69-6.51-1.64-2.76-2.46-5.8-2.46-9.14s.82-6.39,2.46-9.14Z"/>
  <path class="cls-1" d="m141.59,8.89c1.64-2.76,3.87-4.93,6.69-6.51,2.82-1.59,5.95-2.38,9.39-2.38,2.64,0,5.07.48,7.29,1.43,2.22.95,4.11,2.2,5.66,3.73,1.55,1.54,2.75,3.21,3.58,5.01l-7.92,3.01c-.77-1.57-1.91-2.86-3.43-3.86-1.52-1-3.25-1.5-5.19-1.5-1.8,0-3.45.45-4.93,1.35-1.49.9-2.66,2.13-3.51,3.68-.85,1.55-1.28,3.28-1.28,5.19s.43,3.63,1.28,5.19,2.02,2.78,3.51,3.68c1.49.9,3.13,1.35,4.93,1.35,1.94,0,3.67-.5,5.19-1.5,1.52-1,2.66-2.29,3.43-3.86l7.92,3.01c-.84,1.8-2.03,3.47-3.58,5.01-1.55,1.54-3.44,2.78-5.66,3.73-2.22.95-4.65,1.43-7.29,1.43-3.44,0-6.57-.79-9.39-2.38-2.82-1.59-5.05-3.76-6.69-6.51-1.64-2.76-2.46-5.8-2.46-9.14s.82-6.39,2.46-9.14Z"/>
  <path class="cls-1" d="m177.96,8.89c1.64-2.76,3.87-4.93,6.69-6.51,2.82-1.59,5.95-2.38,9.39-2.38s6.57.79,9.39,2.38c2.82,1.59,5.05,3.76,6.69,6.51,1.64,2.76,2.46,5.8,2.46,9.14s-.82,6.39-2.46,9.14c-1.64,2.76-3.87,4.93-6.69,6.51-2.82,1.59-5.95,2.38-9.39,2.38s-6.57-.79-9.39-2.38c-2.82-1.59-5.05-3.76-6.69-6.51-1.64-2.76-2.46-5.8-2.46-9.14s.82-6.39,2.46-9.14Zm7.64,14.33c.85,1.55,2.02,2.78,3.51,3.68,1.49.9,3.13,1.35,4.93,1.35s3.45-.45,4.93-1.35,2.66-2.13,3.51-3.68c.85-1.55,1.28-3.28,1.28-5.19s-.43-3.63-1.28-5.19c-.85-1.55-2.02-2.78-3.51-3.68s-3.13-1.35-4.93-1.35-3.45.45-4.93,1.35c-1.49.9-2.66,2.13-3.51,3.68-.85,1.55-1.28,3.28-1.28,5.19s.43,3.63,1.28,5.19Z"/>
  <path class="cls-1" d="m216.15.5h8.27l23.3,31.62-8.02,2.45V.5h8.52v35.07h-8.27l-23.3-31.61,8.02-2.46v34.07h-8.52V.5Z"/>
  <g>
    <path class="cls-1" d="m2.46,8.9c1.64-2.76,3.87-4.93,6.69-6.52C11.98.79,15.11,0,18.55,0c2.64,0,5.07.48,7.3,1.43,2.22.95,4.11,2.2,5.67,3.74,1.55,1.54,2.75,3.21,3.59,5.01l-7.92,3.01c-.77-1.57-1.91-2.86-3.44-3.86-1.52-1-3.25-1.5-5.19-1.5-1.8,0-3.45.45-4.94,1.35s-2.66,2.13-3.51,3.69c-.85,1.55-1.28,3.28-1.28,5.19s.43,3.64,1.28,5.19c.85,1.55,2.02,2.78,3.51,3.69,1.49.9,3.13,1.35,4.94,1.35s3.33-.36,4.69-1.08,2.39-1.61,3.11-2.68c.72-1.07,1.06-2.14,1.03-3.21l1.3,1.75h-8.23v-7.52h16.2c.43,4.05-.15,7.63-1.75,10.76-1.61,3.13-3.88,5.54-6.82,7.25-2.94,1.71-6.12,2.56-9.53,2.56s-6.58-.79-9.4-2.38c-2.83-1.59-5.06-3.76-6.69-6.52-1.64-2.76-2.46-5.81-2.46-9.15s.82-6.39,2.46-9.15Z"/>
    <rect class="cls-1" x="32.95" y="15.56" width="7.54" height="20.04"/>
    <rect class="cls-1" x="20.45" y="15.56" width="20.04" height="7.54"/>
    <rect class="cls-1" x="29.17" y="23.1" width="3.78" height="6.26"/>
  </g>
</svg>