<?xml version="1.0" encoding="UTF-8"?>
<svg id="Layer_2" data-name="Layer 2" xmlns="http://www.w3.org/2000/svg" viewBox="0 0 105.35 100">
  <defs>
    <style>
      .cls-1 {
        fill: #32cd32;
      }
    </style>
  </defs>
  <g id="Layer_1-2" data-name="Layer 1">
    <g>
      <path class="cls-1" d="m103.98,50.67l-6.17-11.22c-.18-.33-.47-.57-.84-.68-.37-.11-.76-.07-1.09.11l-19.6,10.87c-.33.18-.57.48-.68.85-.11.37-.07.75.11,1.08l6.74,12.19h-16.72v-6.05c0-.61-.39-1.14-.96-1.33-.58-.2-1.2-.02-1.59.46l-16.14,20.38c-.4.51-.4,1.25,0,1.76l16.14,20.38c.28.34.68.53,1.1.53.16,0,.33-.03.46-.08.57-.2.96-.74.96-1.34v-6.05h15.18c2.99,0,5.76-1.61,7.24-4.2l12.79-22.27,2.7-4.24c2.17-3.37,2.31-7.64.36-11.15Zm-2.7,9.62l-2.3,3.58h-13.27l-6.82-12.33,17.11-9.48,5.53,9.97c1.45,2.6,1.35,5.76-.25,8.25Zm-36.94,6.42h32.97l-11.6,20.22c-.97,1.7-2.8,2.76-4.77,2.76h-16.6c-.8,0-1.42.62-1.42,1.42v3.38l-12.9-16.29,12.9-16.29v3.38c0,.8.62,1.42,1.42,1.42Z"/>
      <path class="cls-1" d="m38.71,55.52h0c.53.3,1.21.21,1.64-.19.45-.4.6-1.04.37-1.62l-9.99-24c-.26-.61-.9-.97-1.53-.85l-25.65,4.24c-.61.12-1.08.59-1.16,1.16-.12.6.17,1.2.71,1.48l5.29,2.92-7.35,13.26c-1.45,2.63-1.39,5.83.16,8.36l13.27,21.99,2.39,4.44c1.9,3.53,5.58,5.72,9.59,5.72h12.82c.8,0,1.42-.62,1.42-1.42v-22.42c0-.8-.62-1.42-1.42-1.42l-13.95-.02,8.1-14.61,5.27,2.98Zm-21.41,26.13l6.43-11.6h14.09v19.58h-11.4c-2.96,0-5.67-1.62-7.1-4.22l-2.02-3.75ZM3.5,53.33l8.04-14.52c.18-.35.22-.73.11-1.07-.12-.39-.36-.69-.68-.85l-2.97-1.64,20.51-3.39,7.98,19.18-2.96-1.64c-.3-.18-.67-.22-1.03-.13-.37.1-.69.35-.87.69l-15.98,28.82L3.6,58.85c-1.02-1.68-1.06-3.8-.1-5.52Z"/>
      <path class="cls-1" d="m60.63,31.79l-5.24,3.03c-.51.31-.79.92-.67,1.5.11.59.59,1.05,1.19,1.14l25.77,3.81.14.02c.59,0,1.11-.36,1.33-.91l9.57-24.17c.22-.56.07-1.18-.39-1.59-.45-.4-1.12-.46-1.64-.15l-5.23,3.02-7.59-13.13c-1.48-2.58-4.25-4.18-7.24-4.18l-25.72.07L39.9.01c-4.02-.18-7.79,1.84-9.84,5.27l-6.61,11c-.19.33-.25.74-.15,1.11.1.36.32.66.64.85l19.21,11.55c.61.38,1.57.17,1.96-.48l7.19-11.94,8.35,14.42ZM39.74,2.83l4.26.19,6.62,11.49-7.24,12.08-16.77-10.08,5.87-9.78c1.51-2.52,4.28-3.99,7.26-3.91Zm24.05,28.78L47.31,3.05l23.29-.04c1.96,0,3.8,1.06,4.79,2.76l8.31,14.37c.21.33.52.56.86.65.38.09.75.04,1.07-.14l2.93-1.69-7.65,19.32-20.57-3.03,2.94-1.7c.32-.21.56-.52.64-.85.09-.38.04-.79-.14-1.07Z"/>
    </g>
  </g>
</svg>