<?xml version="1.0" encoding="UTF-8"?>
<svg id="Layer_2" data-name="Layer 2" xmlns="http://www.w3.org/2000/svg" viewBox="0 0 112.63 100">
  <defs>
    <style>
      .cls-1 {
        fill: #32cd32;
      }
    </style>
  </defs>
  <g id="Layer_1-2" data-name="Layer 1">
    <g>
      <path class="cls-1" d="m56.9,54.72h-1.09v-9.14h1.09c2.35,0,4.29,1.77,4.54,4.05h3.05c-.26-3.95-3.56-7.1-7.59-7.1h-1.09v-4.92h-3.05v4.92h-1.09c-4.2,0-7.61,3.42-7.61,7.61s3.4,7.61,7.61,7.61h1.09v9.14h-1.09c-2.35,0-4.29-1.77-4.54-4.05h-3.05c.26,3.95,3.56,7.1,7.59,7.1h1.09v4.92h3.05v-4.92h1.09c4.2,0,7.61-3.42,7.61-7.61s-3.4-7.61-7.61-7.61Zm-4.14,0h-1.09c-2.52,0-4.58-2.06-4.58-4.58s2.06-4.56,4.58-4.56h1.09v9.14Zm4.14,12.17h-1.09v-9.14h1.09c2.52,0,4.58,2.06,4.58,4.58s-2.06,4.56-4.58,4.56Z"/>
      <path class="cls-1" d="m112.21,43.03c-.29-.31-.7-.48-1.11-.49h-7.54l-.09-.39c-1.55-6.93-4.9-13.36-9.68-18.6l-.2-.22,6.55-18.24c.26-.73-.07-1.53-.75-1.87-.58-.27-14.02-6.86-26.07-.34-3.15,1.68-5.89,4.14-7.95,7.06l-.2.29-.34-.09c-.12-.03-.26-.05-.37-.05h-20.3c-.2-.02-.32-.02-.46,0-14.06.46-26.68,7.95-33.8,20.03l-.14.24-.27.02c-.29.02-.6.02-.88,0-1.51,0-2.91-.63-3.91-1.63s-1.63-2.4-1.63-3.95c0-3.1,2.48-5.62,5.67-5.58.56,0,1.12.09,1.67.27l1.19-2.83c-.95-.36-1.96-.53-2.96-.53-1.07,0-2.14.2-3.17.61-2.14.83-3.83,2.47-4.75,4.58-.9,2.11-.95,4.46-.1,6.6s2.48,3.83,4.59,4.73c.73.32,1.5.54,2.3.65l.68.09-.29.63c-2.48,5.34-3.8,11.27-3.81,17.15-.02,10.87,4.19,21.1,11.86,28.8l.24.24-3.23,7.93c-1.77,4.37.36,9.41,4.73,11.22,2.11.88,4.51.87,6.6-.03,2.11-.88,3.8-2.6,4.65-4.71l2.01-4.99.46.17c3.95,1.45,8.07,2.28,12.27,2.47.17.02.29.02.43,0h20.35c.19.02.31.02.44,0,2.98-.12,5.91-.56,8.73-1.28l.44-.12,1.55,3.74c.87,2.13,2.5,3.8,4.63,4.7,2.09.88,4.51.88,6.6,0,4.39-1.8,6.52-6.84,4.73-11.23l-2.16-5.26.29-.24c2.94-2.42,5.55-5.22,7.69-8.36l.15-.22h11.54c.78,0,1.46-.61,1.51-1.41l2.03-28.4c.03-.41-.12-.83-.41-1.14Zm-4.56,27.91h-10.91c-.53.02-1,.27-1.28.71-2.37,3.66-5.33,6.88-8.78,9.53-.54.43-.75,1.16-.49,1.79l2.57,6.28c.56,1.4.54,2.93-.05,4.31-.58,1.36-1.68,2.43-3.06,2.98-1.36.54-2.86.54-4.22-.02s-2.45-1.68-3-3.05l-2.03-5.09c-.31-.73-1.09-1.11-1.84-.88-3.28,1-6.69,1.58-10.11,1.72h-20.3c-4.68-.14-9.22-1.11-13.53-2.91-.77-.32-1.67.05-1.99.82l-2.6,6.4c-.54,1.36-1.63,2.47-3,3.03-.68.29-1.41.43-2.14.43s-1.45-.14-2.14-.43c-1.38-.58-2.45-1.65-3.03-3.03-.56-1.36-.56-2.86-.02-4.22l3.62-8.92c.24-.58.1-1.26-.36-1.68-7.39-6.96-11.62-16.37-11.91-26.5-.31-10.14,3.35-19.79,10.31-27.16,6.93-7.35,16.68-11.69,26.77-11.93h21.73c.6.03,1.12-.24,1.41-.7,1.85-2.96,4.48-5.39,7.54-7.05,8.32-4.48,17.87-1.7,21.58-.31l.48.17-6.4,17.78c-.17.51-.05,1.09.34,1.5,5.24,5.41,8.73,12.19,10.07,19.61.14.71.75,1.24,1.5,1.24h7.18l-1.92,25.58Z"/>
      <path class="cls-1" d="m90.31,40c0,1.96-1.6,3.56-3.56,3.56s-3.54-1.6-3.54-3.56,1.58-3.54,3.54-3.54,3.56,1.58,3.56,3.54Z"/>
      <path class="cls-1" d="m68.48,22.15l-.94,2.88c-9.21-3.17-19.28-3.15-28.49,0l-1.02-2.84c9.84-3.35,20.61-3.35,30.45-.03Z"/>
    </g>
  </g>
</svg>